<svg xmlns="http://www.w3.org/2000/svg" width="166" height="83" viewBox="0 0 166 83">
    <g fill="none" fill-rule="evenodd">
        <path fill="#F4F4F4" d="M-1294-1690H817v4458h-2111z"/>
        <g>
            <rect width="166" height="83" fill="#E1E1E1" rx="4"/>
            <path fill="#F1F1F1" fill-rule="nonzero" d="M77 32.75c-2.393 0-4.333 1.96-4.333 4.376 0 2.417 1.94 4.376 4.333 4.376 2.393 0 4.334-1.959 4.334-4.376 0-2.417-1.94-4.375-4.334-4.375zM100.835 24H66.166C64.971 24 64 24.98 64 26.187v30.626C64 58.02 64.97 59 66.166 59h34.668c1.196 0 2.166-.98 2.166-2.187V26.187A2.175 2.175 0 0 0 100.835 24zm-2.168 29.532c0 .604-.485 1.094-1.083 1.094H80.04l12.137-12.254 6.491 6.554v4.606zm0-10.706l-4.72-4.766a2.18 2.18 0 0 0-.243-.3 2.129 2.129 0 0 0-1.543-.633 2.12 2.12 0 0 0-1.535.63c-.076.076-.137.16-.198.243L73.963 54.627h-4.546c-.598 0-1.083-.49-1.083-1.094V29.47c0-.604.485-1.094 1.083-1.094h28.167c.598 0 1.083.49 1.083 1.094v13.357z"/>
        </g>
    </g>
</svg>
